<svg width="167" height="34" viewBox="0 0 167 34" fill="none" xmlns="http://www.w3.org/2000/svg">
<path d="M166.838 17.5339V20.0269C165.417 20.0269 164.426 20.3122 163.865 20.8827C163.312 21.4533 163.035 22.3752 163.035 23.6486V26.402C163.035 27.9317 162.82 29.1554 162.391 30.0732C161.97 30.9993 161.375 31.698 160.607 32.1693C159.847 32.6406 158.943 32.9548 157.894 33.1119C156.853 33.2691 155.705 33.3476 154.45 33.3476V29.3911C155.425 29.3911 156.164 29.2629 156.668 29.0066C157.18 28.7585 157.526 28.3699 157.708 27.8407C157.89 27.3198 157.981 26.6625 157.981 25.8687V22.247C157.981 21.6104 158.096 21.0109 158.328 20.4486C158.559 19.8781 158.988 19.3778 159.616 18.9479C160.243 18.5096 161.14 18.1665 162.304 17.9184C163.468 17.6621 164.98 17.5339 166.838 17.5339ZM154.45 1.95595C155.705 1.95595 156.853 2.0345 157.894 2.1916C158.943 2.3487 159.847 2.66291 160.607 3.13422C161.375 3.60553 161.97 4.30422 162.391 5.2303C162.82 6.14811 163.035 7.37186 163.035 8.90155V11.6426C163.035 12.9159 163.312 13.8379 163.865 14.4084C164.426 14.979 165.417 15.2642 166.838 15.2642V17.7572C164.98 17.7572 163.468 17.6332 162.304 17.3851C161.14 17.1288 160.243 16.7856 159.616 16.3557C158.988 15.9174 158.559 15.4172 158.328 14.8549C158.096 14.2844 157.981 13.6849 157.981 13.0565V9.43487C157.981 8.63282 157.89 7.97134 157.708 7.45041C157.526 6.92123 157.18 6.5326 156.668 6.28455C156.164 6.02822 155.425 5.90006 154.45 5.90006V1.95595ZM166.838 15.2642V20.0269H162.391V15.2642H166.838Z" fill="#EE404C"/>
<path d="M151.994 14.2099L147.163 14.5076C147.08 14.0942 146.903 13.7221 146.63 13.3914C146.358 13.0523 145.999 12.7836 145.553 12.5852C145.115 12.3785 144.59 12.2751 143.979 12.2751C143.162 12.2751 142.472 12.4487 141.911 12.796C141.349 13.135 141.068 13.5898 141.068 14.1603C141.068 14.6151 141.25 14.9996 141.613 15.3138C141.977 15.628 142.6 15.8802 143.484 16.0704L146.928 16.7649C148.778 17.1453 150.157 17.7572 151.065 18.6006C151.974 19.444 152.428 20.5519 152.428 21.9245C152.428 23.1731 152.06 24.2687 151.325 25.2113C150.599 26.1539 149.599 26.8898 148.327 27.419C147.064 27.9399 145.606 28.2004 143.955 28.2004C141.436 28.2004 139.429 27.6753 137.934 26.6252C136.448 25.5668 135.576 24.1281 135.32 22.309L140.511 22.0362C140.668 22.8051 141.048 23.3922 141.65 23.7974C142.253 24.1942 143.026 24.3927 143.967 24.3927C144.892 24.3927 145.635 24.2149 146.197 23.8594C146.767 23.4956 147.056 23.0284 147.064 22.4578C147.056 21.9783 146.853 21.5855 146.457 21.2796C146.061 20.9654 145.449 20.7256 144.624 20.5602L141.328 19.9029C139.47 19.5308 138.087 18.8858 137.179 17.968C136.278 17.0502 135.828 15.8802 135.828 14.458C135.828 13.2342 136.159 12.18 136.819 11.2953C137.488 10.4105 138.426 9.72837 139.631 9.24879C140.845 8.76922 142.266 8.52943 143.893 8.52943C146.296 8.52943 148.187 9.03795 149.566 10.055C150.954 11.072 151.763 12.457 151.994 14.2099Z" fill="white"/>
<path d="M126.658 27.8283V8.77748H131.935V27.8283H126.658ZM129.309 6.32171C128.525 6.32171 127.852 6.06125 127.29 5.54033C126.737 5.01114 126.46 4.37859 126.46 3.64269C126.46 2.91506 126.737 2.29078 127.29 1.76986C127.852 1.24067 128.525 0.976074 129.309 0.976074C130.094 0.976074 130.763 1.24067 131.316 1.76986C131.878 2.29078 132.158 2.91506 132.158 3.64269C132.158 4.37859 131.878 5.01114 131.316 5.54033C130.763 6.06125 130.094 6.32171 129.309 6.32171Z" fill="white"/>
<path d="M110.167 16.8146V27.8284H104.89V2.42728H110.018V12.1387H110.241C110.671 11.0142 111.365 10.1336 112.323 9.49692C113.281 8.85197 114.482 8.5295 115.927 8.5295C117.249 8.5295 118.401 8.8189 119.384 9.3977C120.375 9.96823 121.143 10.791 121.688 11.8659C122.241 12.9325 122.514 14.21 122.505 15.6984V27.8284H117.228V16.641C117.236 15.4668 116.939 14.5532 116.336 13.8999C115.742 13.2467 114.908 12.9201 113.834 12.9201C113.115 12.9201 112.48 13.0731 111.926 13.379C111.381 13.685 110.952 14.1315 110.638 14.7185C110.332 15.2973 110.175 15.996 110.167 16.8146Z" fill="white"/>
<path d="M101.044 8.77749V12.7464H89.585V8.77749H101.044ZM92.1864 4.21324H97.4636V21.9741C97.4636 22.462 97.5379 22.8423 97.6865 23.1152C97.8352 23.3798 98.0417 23.5658 98.3059 23.6733C98.5785 23.7808 98.8923 23.8346 99.2474 23.8346C99.4951 23.8346 99.7429 23.8139 99.9907 23.7726C100.238 23.723 100.428 23.6857 100.56 23.6609L101.39 27.5926C101.126 27.6753 100.755 27.7704 100.276 27.8779C99.7966 27.9937 99.2143 28.064 98.5289 28.0888C97.2571 28.1384 96.1422 27.9689 95.1842 27.5802C94.2345 27.1916 93.4954 26.588 92.9668 25.7694C92.4383 24.9508 92.1781 23.9173 92.1864 22.6687V4.21324Z" fill="white"/>
<path d="M75.6209 17.7572V15.2642C77.0496 15.2642 78.0406 14.979 78.5939 14.4084C79.1473 13.8379 79.4239 12.9159 79.4239 11.6426V8.90155C79.4239 7.37186 79.6345 6.14811 80.0557 5.2303C80.4851 4.30422 81.0798 3.60553 81.8395 3.13422C82.6076 2.66291 83.516 2.3487 84.5648 2.1916C85.6137 2.0345 86.7616 1.95595 88.0086 1.95595V5.90006C87.0341 5.90006 86.2908 6.02822 85.7788 6.28455C85.2751 6.5326 84.9323 6.92123 84.7506 7.45041C84.569 7.97134 84.4781 8.63282 84.4781 9.43487V13.0565C84.4781 13.6849 84.3625 14.2844 84.1313 14.8549C83.9 15.4172 83.4706 15.9174 82.8429 16.3557C82.2153 16.7856 81.3192 17.1288 80.1548 17.3851C78.9903 17.6332 77.479 17.7572 75.6209 17.7572ZM88.0086 33.3476C86.7616 33.3476 85.6137 33.2691 84.5648 33.1119C83.516 32.9548 82.6076 32.6406 81.8395 32.1693C81.0798 31.698 80.4851 30.9993 80.0557 30.0732C79.6345 29.1554 79.4239 27.9317 79.4239 26.402V23.6486C79.4239 22.3752 79.1473 21.4533 78.5939 20.8827C78.0406 20.3122 77.0496 20.0269 75.6209 20.0269V17.5339C77.479 17.5339 78.9903 17.6621 80.1548 17.9184C81.3192 18.1665 82.2153 18.5096 82.8429 18.9479C83.4706 19.3778 83.9 19.8781 84.1313 20.4486C84.3625 21.0109 84.4781 21.6104 84.4781 22.247V25.8687C84.4781 26.6625 84.569 27.3198 84.7506 27.8407C84.9323 28.3699 85.2751 28.7585 85.7788 29.0066C86.2908 29.2629 87.0341 29.3911 88.0086 29.3911V33.3476ZM75.6209 20.0269V15.2642H80.0681V20.0269H75.6209Z" fill="#EE404C"/>
<path d="M61.4833 28.1384C60.0381 28.1384 58.7291 27.7663 57.5564 27.0222C56.392 26.2697 55.467 25.1659 54.7816 23.7106C54.1044 22.2471 53.7658 20.4528 53.7658 18.3278C53.7658 16.1449 54.1168 14.3299 54.8187 12.8829C55.5207 11.4276 56.4539 10.3403 57.6184 9.62095C58.7911 8.89331 60.0753 8.5295 61.4709 8.5295C62.5363 8.5295 63.4241 8.7114 64.1343 9.07522C64.8528 9.43077 65.4309 9.87727 65.8686 10.4147C66.3145 10.9439 66.6531 11.4648 66.8844 11.9775H67.0454V2.42728H72.3102V27.8284H67.1074V24.7773H66.8844C66.6366 25.3064 66.2856 25.8315 65.8314 26.3524C65.3855 26.8651 64.8032 27.2909 64.0847 27.6299C63.3745 27.9689 62.5074 28.1384 61.4833 28.1384ZM63.1557 23.9339C64.0063 23.9339 64.7248 23.7023 65.3111 23.2393C65.9057 22.768 66.36 22.1106 66.6738 21.2672C66.9959 20.4238 67.1569 19.4358 67.1569 18.303C67.1569 17.1702 67 16.1862 66.6862 15.3511C66.3724 14.5159 65.9181 13.871 65.3235 13.4162C64.7289 12.9615 64.0063 12.7341 63.1557 12.7341C62.2885 12.7341 61.5577 12.9697 60.963 13.441C60.3684 13.9123 59.9183 14.5656 59.6128 15.4007C59.3072 16.2358 59.1544 17.2032 59.1544 18.303C59.1544 19.4109 59.3072 20.3908 59.6128 21.2424C59.9266 22.0858 60.3767 22.7473 60.963 23.2269C61.5577 23.6982 62.2885 23.9339 63.1557 23.9339Z" fill="white"/>
<path d="M39.6624 28.188C38.4484 28.188 37.3666 27.9771 36.4168 27.5554C35.4671 27.1255 34.7156 26.4929 34.1623 25.6578C33.6172 24.8144 33.3447 23.7643 33.3447 22.5075C33.3447 21.4491 33.5388 20.5602 33.9269 19.8408C34.3151 19.1215 34.8436 18.5427 35.5125 18.1044C36.1815 17.6662 36.9413 17.3355 37.7919 17.1122C38.6508 16.889 39.5509 16.7319 40.4924 16.6409C41.599 16.5251 42.491 16.4177 43.1682 16.3184C43.8453 16.2109 44.3367 16.0538 44.6423 15.8471C44.9479 15.6404 45.1006 15.3345 45.1006 14.9293V14.8549C45.1006 14.0694 44.8529 13.4616 44.3574 13.0317C43.8701 12.6017 43.1764 12.3867 42.2762 12.3867C41.3265 12.3867 40.5709 12.5976 40.0093 13.0193C39.4477 13.4327 39.0761 13.9536 38.8944 14.582L34.0136 14.1851C34.2614 13.0275 34.7486 12.027 35.4754 11.1836C36.2021 10.332 37.1395 9.67876 38.2874 9.22399C39.4436 8.76095 40.7815 8.52943 42.301 8.52943C43.3581 8.52943 44.3698 8.65346 45.336 8.90151C46.3105 9.14957 47.1735 9.53406 47.925 10.055C48.6848 10.5759 49.2836 11.2457 49.7213 12.0642C50.159 12.8746 50.3778 13.8461 50.3778 14.9789V27.8283H45.3732V25.1865H45.2245C44.919 25.7818 44.5102 26.3069 43.9981 26.7616C43.4861 27.2081 42.8708 27.5596 42.1524 27.8159C41.4339 28.0639 40.6039 28.188 39.6624 28.188ZM41.1737 24.5415C41.95 24.5415 42.6355 24.3886 43.2301 24.0826C43.8247 23.7684 44.2913 23.3467 44.6299 22.8175C44.9685 22.2883 45.1378 21.6889 45.1378 21.0191V18.9974C44.9726 19.1049 44.7455 19.2042 44.4565 19.2951C44.1757 19.3778 43.8577 19.4564 43.5026 19.5308C43.1475 19.5969 42.7924 19.6589 42.4373 19.7168C42.0822 19.7664 41.7601 19.8119 41.471 19.8532C40.8516 19.9442 40.3107 20.0889 39.8482 20.2873C39.3858 20.4858 39.0265 20.7545 38.7705 21.0935C38.5145 21.4243 38.3865 21.8377 38.3865 22.3338C38.3865 23.0532 38.6466 23.603 39.1669 23.9834C39.6955 24.3555 40.3644 24.5415 41.1737 24.5415Z" fill="white"/>
<path d="M22.0594 28.2004C20.1021 28.2004 18.4174 27.8035 17.0052 27.0097C15.6012 26.2076 14.5194 25.0749 13.7596 23.6113C12.9998 22.1395 12.6199 20.399 12.6199 18.3897C12.6199 16.4301 12.9998 14.7102 13.7596 13.2301C14.5194 11.75 15.5888 10.5966 16.968 9.76971C18.3554 8.94286 19.9824 8.52943 21.8488 8.52943C23.1041 8.52943 24.2726 8.73201 25.3545 9.13717C26.4446 9.53406 27.3943 10.1335 28.2037 10.9356C29.0213 11.7376 29.6572 12.7464 30.1114 13.9619C30.5656 15.1691 30.7927 16.583 30.7927 18.2037V19.6548H14.7258V16.3804H25.8252C25.8252 15.6197 25.6601 14.9458 25.3297 14.3588C24.9994 13.7717 24.541 13.3128 23.9547 12.9821C23.3766 12.643 22.7035 12.4735 21.9355 12.4735C21.1344 12.4735 20.4242 12.6596 19.8048 13.0317C19.1937 13.3955 18.7147 13.8875 18.3678 14.5076C18.021 15.1195 17.8434 15.8016 17.8352 16.5541V19.6672C17.8352 20.6098 18.0086 21.4243 18.3554 22.1106C18.7106 22.7969 19.2102 23.326 19.8544 23.6981C20.4985 24.0702 21.2624 24.2563 22.1461 24.2563C22.7324 24.2563 23.2692 24.1736 23.7565 24.0082C24.2437 23.8428 24.6608 23.5948 25.0076 23.264C25.3545 22.9333 25.6188 22.5281 25.8005 22.0486L30.6812 22.371C30.4335 23.5452 29.9256 24.5705 29.1575 25.4469C28.3978 26.3151 27.415 26.9932 26.2093 27.481C25.0118 27.9606 23.6285 28.2004 22.0594 28.2004Z" fill="white"/>
<path d="M0 27.8283V8.77752H5.11613V12.1015H5.31433C5.66119 10.9191 6.24341 10.0261 7.061 9.42247C7.87859 8.8106 8.82006 8.50466 9.8854 8.50466C10.1497 8.50466 10.4346 8.5212 10.7402 8.55427C11.0457 8.58735 11.3141 8.63282 11.5454 8.6907V13.379C11.2976 13.3046 10.9549 13.2384 10.5172 13.1805C10.0795 13.1227 9.67894 13.0937 9.31557 13.0937C8.53927 13.0937 7.84556 13.2632 7.23443 13.6022C6.63156 13.933 6.15257 14.396 5.79745 14.9914C5.4506 15.5867 5.27717 16.273 5.27717 17.0502V27.8283H0Z" fill="white"/>
</svg>
