<svg width="21" height="22" viewBox="0 0 21 22" fill="none" xmlns="http://www.w3.org/2000/svg">
<path d="M9.41037 18.1938C11.3317 18.1934 13.1976 17.5502 14.711 16.3667L19.4693 21.125L20.9999 19.5945L16.2416 14.8361C17.4257 13.3225 18.0693 11.4562 18.0698 9.5344C18.0698 4.75982 14.1849 0.875 9.41037 0.875C4.6358 0.875 0.750977 4.75982 0.750977 9.5344C0.750977 14.309 4.6358 18.1938 9.41037 18.1938ZM9.41037 3.03985C12.9921 3.03985 15.9049 5.95266 15.9049 9.5344C15.9049 13.1161 12.9921 16.0289 9.41037 16.0289C5.82863 16.0289 2.91583 13.1161 2.91583 9.5344C2.91583 5.95266 5.82863 3.03985 9.41037 3.03985Z" fill="#080F1E"/>
</svg>
